M48
INCH
T01C0.028
T02C0.0354
T03C0.038
T04C0.0394
T05C0.0433
T06C0.0591
%
T01
X+009000Y+002000
X+009000Y+003000
T02
X+012000Y+010000
X+012000Y+009000
X+012000Y+008000
X+012000Y+007000
X+015000Y+007000
X+015000Y+008000
X+015000Y+009000
X+015000Y+010000
T03
X+015000Y+013000
X+019000Y+013000
X+019000Y+009000
X+019000Y+005000
X+009000Y+006000
X+009000Y+010000
T04
X+013000Y+001000
X+014000Y+001000
X+014000Y+004000
X+013000Y+004000
T05
X+005000Y+018874
T06
X+005000Y+011000
T00
M30
