G04 DipTrace 2.1.9.5*
%INTop.gbr*%
%MOIN*%
%ADD13C,0.016*%
%ADD14R,0.0591X0.0591*%
%ADD15C,0.0591*%
%ADD16C,0.06*%
%ADD17C,0.06*%
%ADD18C,0.05*%
%ADD19R,0.05X0.05*%
%ADD20C,0.063*%
%ADD21R,0.063X0.063*%
%ADD23R,0.0866X0.0866*%
%ADD24C,0.0748*%
%FSLAX44Y44*%
%SFA1B1*%
%OFA0B0*%
G04*
G70*
G90*
G75*
G01*
%LNTop*%
%LPD*%
X9000Y10000D2*
D13*
X12000D1*
X13000Y9000D1*
Y4000D1*
Y1000D2*
Y4000D1*
X9000Y10000D2*
D3*
X15000Y8000D2*
X16000D1*
X17000Y7000D1*
Y6000D1*
X18000Y5000D1*
X19000D1*
X14000Y1000D2*
X17000D1*
X19000Y3000D1*
Y5000D1*
X15000Y13000D2*
Y10000D1*
X19000Y9000D2*
Y13000D1*
X15000Y9000D2*
X19000D1*
X9000Y2000D2*
X10000D1*
X11000Y3000D1*
Y7000D1*
X12000Y8000D1*
X9000Y6000D2*
Y3000D1*
X15000Y7000D2*
Y6000D1*
X14000Y5000D1*
Y4000D1*
D14*
X12000Y10000D3*
D15*
Y9000D3*
Y8000D3*
Y7000D3*
X15000D3*
Y8000D3*
Y9000D3*
Y10000D3*
D16*
Y13000D3*
D17*
X19000D3*
D16*
Y5000D3*
D17*
Y9000D3*
D16*
X9000Y6000D3*
D17*
Y10000D3*
D18*
Y2000D3*
D19*
Y3000D3*
D20*
X13000Y1000D3*
D21*
X14000D3*
D20*
X13000Y4000D3*
D21*
X14000D3*
D23*
X5000Y11000D3*
D24*
Y18874D3*
M02*
